<svg width="428" height="514" viewBox="0 0 428 514" fill="none" xmlns="http://www.w3.org/2000/svg">
<path d="M114.365 86.1148C61.4627 25.0884 106.949 -101.219 106.949 -101.219L738.797 15.9597L708.336 226.132L516.596 304.617C516.596 304.617 378.376 344.801 326.333 291.523C288.865 253.165 323.691 200.39 289.2 159.334C244.608 106.253 159.775 138.498 114.365 86.1148Z" fill="#FFB26A"/>
<path d="M418.356 201.895C488.325 173.173 587.711 295.858 587.711 295.858C587.711 295.858 500.463 565.614 392.234 485.694C345.037 450.842 214.239 422.329 237.426 368.435C255.666 326.039 306.592 342.635 341.507 312.451C381.285 278.064 369.714 221.862 418.356 201.895Z" fill="#5ECBA4"/>
<g clip-path="url(#clip0_216_3)">
<path d="M35.6397 104.463C34.0128 106.666 29.7123 111.251 33.1771 113.796C34.0528 114.439 35.2793 114.481 36.0093 113.57C36.9338 112.416 35.7855 106.702 34.3819 107.962C33.1691 109.05 34.29 115.091 34.4046 111.876C34.4761 109.87 32.5053 103.528 32.9609 108.778" stroke="#5F7386" stroke-width="2.02391" stroke-linecap="round"/>
<path d="M41.9702 111.374C43.0475 110.117 47.4901 106.293 47.1366 104.141C47.0318 103.502 46.228 103.539 45.9909 104.022C45.1325 105.772 45.644 108.437 46.5869 110.061C47.5107 111.652 51.7861 100.102 45.9116 104.579" stroke="#5F7386" stroke-width="2.02391" stroke-linecap="round"/>
<path d="M46.5084 122.153C46.4865 122.355 44.9087 133.716 47.979 129.608C48.9337 128.33 48.9869 127.072 48.3218 125.728" stroke="#5F7386" stroke-width="2.02391" stroke-linecap="round"/>
<path d="M27.8278 135.189C27.8383 136.103 27.0505 142.831 28.5853 143.353C29.571 143.688 29.6445 142.618 29.4828 141.964C29.2912 141.188 25.1028 132.786 24.1422 136.591C23.2893 139.969 27.997 146.159 28.0701 139.92C28.1164 135.964 25.5451 129.366 22.4006 135.19" stroke="#5F7386" stroke-width="2.02391" stroke-linecap="round"/>
<path d="M41.2341 152.854C40.498 152.548 33.6739 148.697 33.6376 151.234C33.6121 153.005 34.3504 154.747 35.0742 156.323C35.7456 157.784 39.5887 162.126 39.2839 157.95C39.2054 156.875 37.0433 149.673 35.27 150.393C33.3033 151.192 37.0685 156.494 38.3731 156.986" stroke="#5F7386" stroke-width="2.02391" stroke-linecap="round"/>
<path d="M53.8724 146.842C53.8586 146.805 50.4244 138.015 51.1248 141.65C51.4573 143.375 52.7585 144.598 53.8781 145.826" stroke="#5F7386" stroke-width="2.02391" stroke-linecap="round"/>
<path d="M63.5209 115.628C66.4657 114.191 71.4661 112.754 69.7015 108.657C69.0193 107.074 68.4872 107.041 67.3333 108.013" stroke="#5F7386" stroke-width="2.02391" stroke-linecap="round"/>
<path d="M63.1493 154.394C64.4122 155.328 69.4545 160.212 68.8905 155.898C68.6114 153.764 67.9599 151.771 66.8662 149.921C65.3574 147.369 67.0955 150.975 67.9175 151.881" stroke="#5F7386" stroke-width="2.02391" stroke-linecap="round"/>
<path d="M69.8311 103.149C69.1998 104.401 64.7244 110.342 67.7611 111.498C69.5985 112.198 71.0049 109.704 71.5448 108.433C74.5614 101.331 67.7345 103.252 67.0518 109.816C66.5787 114.363 69.4537 115.448 69.3261 110.69C69.2276 107.015 66.5396 105.562 67.6847 109.601" stroke="#5F7386" stroke-width="2.02391" stroke-linecap="round"/>
<path d="M76.474 125.361C76.012 127.484 73.5911 133.363 75.7484 135.402C76.9614 136.549 77.4341 133.075 77.4233 132.659C77.3973 131.643 74.4577 119.749 72.1948 123.905C71.6706 124.867 71.5925 130.22 73.2989 130.403C75.6946 130.661 75.16 125.945 74.4645 124.73" stroke="#5F7386" stroke-width="2.02391" stroke-linecap="round"/>
<path d="M65.7057 158.288C59.094 139.319 61.5541 159.742 63.8706 159.113C66.4863 158.403 62.912 148.802 62.9426 154.387" stroke="#5F7386" stroke-width="2.02391" stroke-linecap="round"/>
<path d="M35.8864 188.699C35.2342 184.324 33.0921 175.062 32.5051 184.046" stroke="#5F7386" stroke-width="2.02391" stroke-linecap="round"/>
<path d="M71.4954 184.82C71.4382 185.085 70.2654 192.006 70.4487 191.89C71.5262 191.21 70.8553 188.271 70.7008 187.324C70.5868 186.626 69.0796 180.12 68.698 182.225C68.2918 184.463 69.7732 188.299 71.3819 189.885C74.1739 192.636 73.5714 185.583 73.2376 184.609C71.8007 180.418 69.873 183.379 70.1047 186.294C70.3207 189.011 72.4171 192.912 73.1146 187.921C73.2455 186.984 72.1495 178.394 70.3413 181.033C69.2467 182.63 70.3625 189.582 72.1411 185.476" stroke="#5F7386" stroke-width="2.02391" stroke-linecap="round"/>
<path d="M80.654 170.605C80.7058 170.493 85.8217 160.49 82.2971 161.776C79.4457 162.816 77.9825 168.115 76.8282 170.572" stroke="#5F7386" stroke-width="2.02391" stroke-linecap="round"/>
<path d="M52.7841 179.767C52.7743 179.727 50.0621 169.988 50.0476 170.001C49.4435 170.52 50.4426 173.461 50.5972 174.017C50.714 174.437 52.5077 179.966 53.3587 178.306C54.4416 176.194 53.2044 165.793 51.7743 174.128" stroke="#5F7386" stroke-width="2.02391" stroke-linecap="round"/>
<path d="M28.174 170.197C27.4258 169.134 22.073 158.814 22.5542 164.791C22.6242 165.66 23.7101 172.73 25.205 170.737C27.6689 167.452 24.0661 157.598 23.9385 167.15" stroke="#5F7386" stroke-width="2.02391" stroke-linecap="round"/>
<path d="M89.501 136.107C89.5305 135.954 90.9543 126.56 89.3543 130.531C88.5451 132.539 88.8054 134.955 89.0898 137.041C89.454 139.71 90.2829 140.164 89.6054 137.102" stroke="#5F7386" stroke-width="2.02391" stroke-linecap="round"/>
<path d="M33.0503 73.1657C32.811 73.8597 28.9231 86.0649 33.4237 84.2917C35.3639 83.5274 35.1195 80.7389 35.1504 79.0351C35.2709 72.3906 31.8019 78.7358 33.2914 82.2766C33.6825 83.2065 35.1031 83.2283 35.1875 82.0997C35.3055 80.5223 35.0897 77.4015 33.9852 76.128C33.5592 75.6371 33.5215 77.2152 34.0214 77.6067C35.4044 78.6903 35.7834 75.5081 35.7703 74.8626" stroke="#5F7386" stroke-width="2.02391" stroke-linecap="round"/>
<path d="M19.2623 108.692C19.1537 108.991 16.0661 116.247 17.3085 116.377C18.26 116.475 18.4139 113.592 18.4578 113.133C18.5394 112.281 18.1389 107.496 18.2473 108.322" stroke="#5F7386" stroke-width="2.02391" stroke-linecap="round"/>
<path d="M51.2712 84.8081C51.1302 85.586 48.8615 92.733 51.1231 92.5634C52.1913 92.4833 52.4701 91.2672 52.6457 90.3989C52.812 89.5764 52.3971 85.0851 50.8284 85.8313C47.8249 87.2601 53.179 94.2726 52.8021 88.8003C52.4454 83.6233 48.2557 86.1954 51.0649 89.1346C52.3833 90.5141 51.2787 87.0284 50.9568 86.5525C49.0622 83.7512 48.3865 86.7517 49.1273 88.6256" stroke="#5F7386" stroke-width="2.02391" stroke-linecap="round"/>
<path d="M75.6028 89.5497C74.5848 91.8551 72.5489 98.8575 74.2365 96.9858C75.378 95.7198 74.5618 91.4779 74.1513 90.0344C72.999 85.9818 71.6481 94.3137 74.7437 94.8086C78.8832 95.4702 74.1931 83.4074 73.624 90.8232C73.5366 91.9615 74.0908 98.1009 76.077 97.1277C78.6025 95.8903 76.5871 91.0653 75.758 89.4639" stroke="#5F7386" stroke-width="2.02391" stroke-linecap="round"/>
<path d="M26.5908 132.511C26.5602 132.663 25.0524 142.134 26.0622 141.345C26.9193 140.675 26.0221 138.145 25.83 137.333C25.5152 136 22.9577 130.086 23.607 134.6C23.8763 136.472 26.7515 139.768 25.8035 136.62C25.5011 135.617 24.6369 133.149 23.2254 133.254C21.4639 133.385 23.9643 137.528 24.2843 138.16" stroke="#5F7386" stroke-width="2.02391" stroke-linecap="round"/>
</g>
<path d="M548.876 253.198C498.078 271.761 391.79 295.158 373.022 240.243C349.561 171.598 371.426 123.153 310.606 67.4224C249.786 11.6918 155.104 -22.363 172.419 -93.3589" stroke="#475751" stroke-width="3"/>
<defs>
<clipPath id="clip0_216_3">
<rect width="88.7064" height="125.487" fill="white" transform="translate(-18 98.9023) rotate(-28.9237)"/>
</clipPath>
</defs>
</svg>
