<svg width="1358" height="1024" viewBox="0 0 1358 1024" fill="none" xmlns="http://www.w3.org/2000/svg">
<path d="M-210.222 79.8599C-277.85 -8.61024 -213.506 -197.091 -213.506 -197.091L615.417 -45.5965L567.974 266.462L312.477 389.247C312.477 389.247 128.865 453.5 62.1022 376.466C14.0353 321.005 61.7772 241.704 17.7301 182.145C-39.2173 105.144 -152.172 155.8 -210.222 79.8599Z" fill="#FFB26A"/>
<path d="M747.239 194.965C981.411 98.8377 1314.04 509.441 1314.04 509.441C1314.04 509.441 1022.04 1412.26 659.813 1144.79C501.855 1028.14 64.0985 932.717 141.7 752.344C202.746 610.451 373.186 665.995 490.04 564.976C623.168 449.888 584.445 261.792 747.239 194.965Z" fill="#5ECBA4"/>
<path d="M863.378 391.887C785.452 420.364 622.403 456.256 593.612 372.013C557.622 266.71 591.165 192.394 497.864 106.901C404.564 21.4082 259.318 -30.833 285.881 -139.743" stroke="#475751" stroke-width="4"/>
<g clip-path="url(#clip0_214_2)">
<path d="M84.007 578.556C80.0944 583.854 69.7513 594.882 78.0845 601.004C80.1906 602.551 83.1404 602.652 84.8961 600.46C87.1195 597.684 84.3578 583.942 80.9821 586.971C78.0652 589.588 80.7611 604.117 81.0367 596.385C81.2085 591.561 76.4687 576.309 77.5644 588.935" stroke="#5F7386" stroke-width="3.02" stroke-linecap="round"/>
<path d="M99.2325 595.179C101.823 592.156 112.508 582.958 111.658 577.781C111.406 576.245 109.473 576.333 108.903 577.496C106.838 581.706 108.068 588.114 110.336 592.02C112.558 595.847 122.84 568.069 108.712 578.836" stroke="#5F7386" stroke-width="3.02" stroke-linecap="round"/>
<path d="M110.147 621.101C110.094 621.589 106.299 648.912 113.684 639.031C115.98 635.959 116.108 632.933 114.508 629.7" stroke="#5F7386" stroke-width="3.02" stroke-linecap="round"/>
<path d="M65.2185 652.455C65.2437 654.652 63.349 670.834 67.0402 672.089C69.4109 672.896 69.5877 670.321 69.1988 668.748C68.738 666.883 58.6645 646.674 56.3544 655.826C54.3031 663.951 65.6254 678.837 65.8011 663.833C65.9126 654.318 59.7285 638.451 52.1656 652.458" stroke="#5F7386" stroke-width="3.02" stroke-linecap="round"/>
<path d="M97.4622 694.939C95.692 694.203 79.2794 684.942 79.1921 691.044C79.1308 695.302 80.9065 699.493 82.6472 703.282C84.2621 706.798 93.505 717.239 92.7718 707.197C92.5831 704.611 87.3831 687.289 83.1181 689.021C78.3883 690.941 87.4436 703.694 90.5814 704.878" stroke="#5F7386" stroke-width="3.02" stroke-linecap="round"/>
<path d="M127.858 680.481C127.825 680.391 119.565 659.252 121.25 667.994C122.049 672.142 125.179 675.085 127.872 678.038" stroke="#5F7386" stroke-width="3.02" stroke-linecap="round"/>
<path d="M151.064 605.409C158.146 601.953 170.172 598.496 165.928 588.644C164.288 584.835 163.008 584.757 160.233 587.093" stroke="#5F7386" stroke-width="3.02" stroke-linecap="round"/>
<path d="M150.169 698.644C153.207 700.89 165.334 712.637 163.977 702.261C163.306 697.127 161.739 692.336 159.109 687.887C155.48 681.748 159.66 690.421 161.637 692.6" stroke="#5F7386" stroke-width="3.02" stroke-linecap="round"/>
<path d="M166.239 575.396C164.721 578.406 153.958 592.695 161.261 595.477C165.68 597.161 169.063 591.162 170.361 588.105C177.616 571.023 161.197 575.643 159.555 591.43C158.417 602.366 165.332 604.975 165.025 593.532C164.788 584.694 158.323 581.201 161.077 590.913" stroke="#5F7386" stroke-width="3.02" stroke-linecap="round"/>
<path d="M182.216 628.818C181.105 633.924 175.283 648.063 180.471 652.967C183.388 655.725 184.525 647.369 184.499 646.369C184.437 643.925 177.367 615.32 171.924 625.315C170.664 627.63 170.476 640.503 174.58 640.944C180.342 641.563 179.056 630.223 177.383 627.299" stroke="#5F7386" stroke-width="3.02" stroke-linecap="round"/>
<path d="M156.318 708.008C140.416 662.387 146.333 711.505 151.904 709.993C158.195 708.285 149.599 685.194 149.672 698.626" stroke="#5F7386" stroke-width="3.02" stroke-linecap="round"/>
<path d="M84.5999 781.149C83.0313 770.628 77.8796 748.351 76.4677 769.959" stroke="#5F7386" stroke-width="3.02" stroke-linecap="round"/>
<path d="M170.242 771.82C170.105 772.457 167.284 789.102 167.725 788.822C170.316 787.188 168.703 780.12 168.331 777.843C168.057 776.163 164.432 760.515 163.514 765.579C162.537 770.961 166.1 780.187 169.969 784C176.684 790.617 175.235 773.653 174.432 771.312C170.977 761.233 166.34 768.355 166.897 775.365C167.417 781.9 172.459 791.281 174.136 779.278C174.451 777.023 171.815 756.364 167.466 762.712C164.834 766.553 167.517 783.271 171.795 773.396" stroke="#5F7386" stroke-width="3.02" stroke-linecap="round"/>
<path d="M192.268 737.631C192.393 737.363 204.697 713.305 196.22 716.397C189.362 718.899 185.843 731.643 183.067 737.552" stroke="#5F7386" stroke-width="3.02" stroke-linecap="round"/>
<path d="M125.24 759.667C125.216 759.572 118.693 736.148 118.658 736.179C117.205 737.427 119.609 744.502 119.98 745.839C120.261 746.849 124.575 760.147 126.622 756.154C129.226 751.074 126.251 726.06 122.811 746.104" stroke="#5F7386" stroke-width="3.02" stroke-linecap="round"/>
<path d="M66.0513 736.65C64.2517 734.094 51.3779 709.274 52.5353 723.65C52.7035 725.739 55.3151 742.742 58.9105 737.949C64.8364 730.05 56.1714 706.35 55.8646 729.322" stroke="#5F7386" stroke-width="3.02" stroke-linecap="round"/>
<path d="M213.546 654.662C213.617 654.293 217.042 631.7 213.194 641.251C211.247 646.081 211.873 651.892 212.558 656.907C213.433 663.327 215.427 664.42 213.798 657.056" stroke="#5F7386" stroke-width="3.02" stroke-linecap="round"/>
<path d="M77.7787 503.284C77.2032 504.953 67.8527 534.307 78.6768 530.043C83.3431 528.205 82.7554 521.498 82.8297 517.4C83.1194 501.42 74.7764 516.68 78.3587 525.196C79.2994 527.433 82.7158 527.485 82.9189 524.771C83.2027 520.977 82.6836 513.471 80.0271 510.409C79.0028 509.228 78.912 513.023 80.1142 513.965C83.4406 516.571 84.352 508.918 84.3205 507.365" stroke="#5F7386" stroke-width="3.02" stroke-linecap="round"/>
<path d="M44.6184 588.728C44.3572 589.445 36.9312 606.899 39.9193 607.209C42.2078 607.447 42.5779 600.512 42.6834 599.409C42.8797 597.359 41.9165 585.85 42.1772 587.836" stroke="#5F7386" stroke-width="3.02" stroke-linecap="round"/>
<path d="M121.601 531.285C121.262 533.156 115.806 550.345 121.245 549.937C123.814 549.744 124.485 546.82 124.907 544.731C125.307 542.753 124.309 531.951 120.536 533.746C113.313 537.182 126.19 554.048 125.283 540.887C124.425 528.436 114.349 534.622 121.105 541.69C124.276 545.008 121.619 536.625 120.845 535.48C116.289 528.743 114.663 535.96 116.445 540.466" stroke="#5F7386" stroke-width="3.02" stroke-linecap="round"/>
<path d="M180.121 542.689C177.673 548.234 172.777 565.075 176.835 560.574C179.581 557.529 177.618 547.327 176.63 543.855C173.859 534.108 170.61 554.147 178.055 555.337C188.011 556.929 176.731 527.917 175.362 545.752C175.152 548.49 176.485 563.256 181.262 560.915C187.336 557.939 182.489 546.334 180.494 542.483" stroke="#5F7386" stroke-width="3.02" stroke-linecap="round"/>
<path d="M62.243 646.013C62.1694 646.38 58.543 669.158 60.9718 667.259C63.033 665.648 60.8753 659.564 60.4134 657.61C59.6563 654.405 53.5051 640.181 55.0669 651.038C55.7146 655.541 62.6296 663.467 60.3495 655.897C59.6223 653.483 57.5438 647.548 54.149 647.801C49.9125 648.116 55.9261 658.08 56.6958 659.599" stroke="#5F7386" stroke-width="3.02" stroke-linecap="round"/>
</g>
<defs>
<clipPath id="clip0_214_2">
<rect width="213.344" height="301.804" fill="white" transform="translate(-45 565.183) rotate(-28.9237)"/>
</clipPath>
</defs>
</svg>
