<svg width="1440" height="1471" viewBox="0 0 1440 1471" fill="none" xmlns="http://www.w3.org/2000/svg">
<path d="M311.473 77.7044C215.588 -32.9047 298.031 -261.835 298.031 -261.835L1443.24 -49.4503L1388.03 331.483L1040.51 473.737C1040.51 473.737 789.988 546.569 695.661 450.004C627.75 380.481 690.872 284.827 628.358 210.412C547.535 114.204 393.777 172.648 311.473 77.7044Z" fill="#FEB572"/>
<path d="M-211.14 621.128C-403.756 645.098 -471.321 1044.62 -471.321 1044.62C-471.321 1044.62 63.6877 1537.71 204.919 1222.65C266.508 1085.26 522.979 856.678 403.223 765.416C309.016 693.624 216.084 794.907 99.9895 771.432C-32.2721 744.687 -77.2354 604.464 -211.14 621.128Z" fill="#5ECBA4"/>
<g clip-path="url(#clip0_220_4)">
<path d="M142.244 149.887C130.838 150.846 104.576 149.969 106.127 167.873C106.519 172.397 109.768 176.367 114.643 176.15C120.818 175.874 135.609 156.517 127.783 155.578C121.02 154.766 105.127 174.937 115.545 166.437C122.045 161.134 136.542 137.462 121.3 153.363" stroke="white" stroke-width="3.02" stroke-linecap="round"/>
<path d="M137.973 188.83C144.892 188.751 169.154 192.172 174.944 185.129C176.662 183.038 174.331 180.614 172.159 181.202C164.292 183.328 157.329 192.279 154.824 199.718C152.37 207.006 200.449 188.609 170.19 182.487" stroke="white" stroke-width="3.02" stroke-linecap="round"/>
<path d="M116.609 232.796C115.912 233.286 75.8628 259.639 97.2351 257.965C103.88 257.444 107.98 254.144 110.373 248.348" stroke="white" stroke-width="3.02" stroke-linecap="round"/>
<path d="M24.1569 210.022C21.314 212.574 -2.0003 228.642 0.589336 234.903C2.25223 238.925 5.81901 236.206 7.4288 233.895C9.33776 231.155 24.1991 194.835 9.59329 202.304C-3.37337 208.935 -9.84859 240.787 9.95695 223.823C22.5181 213.064 36.1633 186.801 9.19429 192.971" stroke="white" stroke-width="3.02" stroke-linecap="round"/>
<path d="M5.59628 300.838C4.52943 297.681 -2.17841 265.624 -10.2516 272.503C-15.8851 277.302 -19.3262 284.425 -22.2825 291.041C-25.0251 297.18 -28.0764 321.222 -15.7947 308.756C-12.633 305.547 4.0414 278.902 -3.10867 275.314C-11.0384 271.335 -17.3243 297.78 -15.2755 303.237" stroke="white" stroke-width="3.02" stroke-linecap="round"/>
<path d="M59.3189 323.985C59.3994 323.837 77.5549 288.822 68.0627 301.041C63.5585 306.839 63.3005 314.3 62.5269 321.203" stroke="white" stroke-width="3.02" stroke-linecap="round"/>
<path d="M184.002 268.276C196.634 273.569 214.933 285.322 222.942 268.487C226.038 261.978 224.674 260.216 218.441 259.268" stroke="white" stroke-width="3.02" stroke-linecap="round"/>
<path d="M61.1548 373.952C61.7007 380.495 60.249 409.801 72.2528 396.138C78.1912 389.378 82.6559 381.84 85.455 373.305C89.3171 361.529 82.7755 376.929 82.1945 382.009" stroke="white" stroke-width="3.02" stroke-linecap="round"/>
<path d="M240.608 253.712C234.935 255.177 203.931 257.487 208.665 270.218C211.529 277.922 223.243 275.467 228.725 273.66C259.359 263.565 234.507 247.406 211.998 263.351C196.405 274.397 200.919 286.422 215.519 272.908C226.796 262.469 223.952 250.02 214.417 264.748" stroke="white" stroke-width="3.02" stroke-linecap="round"/>
<path d="M189.116 335.806C181.17 340.206 156.023 348.801 155.562 361.201C155.302 368.172 167.522 360.082 168.8 358.902C171.921 356.019 201.194 314.003 181.898 318.345C177.429 319.35 160.393 333.857 164.52 339.725C170.314 347.963 183.658 333.287 185.561 327.751" stroke="white" stroke-width="3.02" stroke-linecap="round"/>
<path d="M55.9656 392.716C97.3529 319.659 39.9548 383.677 48.3153 389.223C57.7558 395.486 78.0752 357.793 60.6087 373.282" stroke="white" stroke-width="3.02" stroke-linecap="round"/>
<path d="M-11.4541 484.035C-12.445 484.586 -37.4252 499.974 -36.5548 500.23C-31.4502 501.744 -24.0631 491.535 -21.5138 488.44C-19.6338 486.157 -3.34175 463.489 -11.0102 468.093C-19.1623 472.984 -27.1339 488.212 -27.6823 497.637C-28.632 513.993 -8.12841 492.66 -5.98883 488.928C3.22005 472.863 -11.3984 474.966 -19.9197 483.728C-27.8629 491.895 -34.3419 509.233 -16.7368 497.67C-13.4297 495.498 10.5431 468.379 -2.73444 469.971C-10.7705 470.934 -29.5395 493.598 -11.7342 487.871" stroke="white" stroke-width="3.02" stroke-linecap="round"/>
<path d="M58.4575 473.636C58.9503 473.492 104.485 461.999 90.7305 454.466C79.6036 448.372 58.9184 458.379 48.0162 461.523" stroke="white" stroke-width="3.02" stroke-linecap="round"/>
<path d="M191.25 406.359C191.813 406.029 225.257 384.613 208.368 390.529C199.826 393.522 192.952 400.998 187.182 407.64C179.798 416.141 180.655 419.998 188.41 409.43" stroke="white" stroke-width="3.02" stroke-linecap="round"/>
<path d="M233.458 55.4909C230.617 56.6518 181.548 78.0729 199.524 87.329C207.273 91.3194 215.362 82.866 220.801 78.2673C242.014 60.3329 212.513 66.9199 205.492 81.3594C203.647 85.1515 207.494 89.6755 211.273 86.8303C216.555 82.8537 225.768 73.5742 226.725 66.5934C227.094 63.9018 222.031 68.1328 222.178 70.7825C222.585 78.1152 233.63 70.5357 235.622 68.7154" stroke="white" stroke-width="3.02" stroke-linecap="round"/>
<path d="M83.8158 110.078C82.5794 110.559 51.2649 120.857 54.2834 125.117C56.5953 128.38 66.0803 120.916 67.6422 119.79C70.5463 117.697 84.4805 103.25 82.1834 105.867" stroke="white" stroke-width="3.02" stroke-linecap="round"/>
<path d="M247.09 144.838C244.257 146.539 215.545 159.107 222.311 165.747C225.507 168.883 230.097 166.407 233.31 164.566C236.353 162.822 249.323 149.139 242.655 146.266C229.887 140.766 222.606 176.918 238.764 160.651C254.05 145.262 234.42 139.185 232.926 156.114C232.224 164.059 240.134 150.981 240.742 148.657C244.324 134.983 233.032 141.13 229.185 148.622" stroke="white" stroke-width="3.02" stroke-linecap="round"/>
<path d="M299.251 234.369C289.2 237.524 261.585 250.426 272.118 250.57C279.242 250.668 290.323 236.412 293.727 231.144C303.287 216.353 273.381 235.072 280.357 246.164C289.687 260.995 314.668 213.011 289.795 231.661C285.977 234.524 268.212 253.186 276.744 256.745C287.593 261.271 297.201 241.64 299.948 234.62" stroke="white" stroke-width="3.02" stroke-linecap="round"/>
<path d="M29.1648 198.753C28.6008 199.077 -5.31693 220.442 -0.0529843 221.44C4.41407 222.287 9.89104 212.495 11.9152 209.652C15.2347 204.991 26.7711 180.653 14.3744 195.136C9.23351 201.142 6.80215 219.26 14.08 207.606C16.4008 203.889 21.7734 194.372 17.5532 190.226C12.2865 185.052 6.15788 204.328 5.05604 207.074" stroke="white" stroke-width="3.02" stroke-linecap="round"/>
</g>
<defs>
<clipPath id="clip0_220_4">
<rect width="370.78" height="524.518" fill="white" transform="translate(11.8818 -34) rotate(19.8241)"/>
</clipPath>
</defs>
</svg>
