<svg width="428" height="605" viewBox="0 0 428 605" fill="none" xmlns="http://www.w3.org/2000/svg">
<path d="M-40.9819 264.945C-116.038 274.285 -142.365 429.965 -142.365 429.965C-142.365 429.965 66.109 622.107 121.142 499.338C145.141 445.801 245.079 356.731 198.414 321.169C161.705 293.194 125.492 332.661 80.2546 323.513C28.7168 313.092 11.1962 258.452 -40.9819 264.945Z" fill="#5ECBA4"/>
<path d="M114.365 86.1148C61.4627 25.0884 106.949 -101.219 106.949 -101.219L738.797 15.9597L708.336 226.132L516.596 304.617C516.596 304.617 378.376 344.801 326.333 291.523C288.865 253.165 323.691 200.39 289.2 159.334C244.608 106.253 159.775 138.498 114.365 86.1148Z" fill="#FEB572"/>
<g clip-path="url(#clip0_223_6)">
<path d="M34.9334 63.8302C32.4197 64.0415 26.6318 63.8483 26.9737 67.7939C27.0601 68.7911 27.776 69.6661 28.8505 69.6181C30.2113 69.5574 33.4711 65.2914 31.7463 65.0843C30.256 64.9054 26.7532 69.3509 29.0493 67.4776C30.4817 66.3088 33.6766 61.092 30.3175 64.5963" stroke="white" stroke-width="2.02391" stroke-linecap="round"/>
<path d="M33.9919 72.4129C35.5168 72.3955 40.8638 73.1494 42.1399 71.5971C42.5186 71.1365 42.0049 70.6022 41.5261 70.7317C39.7925 71.2002 38.2578 73.1731 37.7057 74.8125C37.1649 76.4187 47.7609 72.3642 41.0922 71.015" stroke="white" stroke-width="2.02391" stroke-linecap="round"/>
<path d="M29.2838 82.1025C29.1301 82.2104 20.3038 88.0182 25.014 87.6492C26.4785 87.5345 27.3821 86.8072 27.9093 85.5299" stroke="white" stroke-width="2.02391" stroke-linecap="round"/>
<path d="M8.9086 77.0832C8.28205 77.6456 3.14389 81.1867 3.71462 82.5667C4.0811 83.453 4.86717 82.8537 5.22194 82.3444C5.64265 81.7407 8.9179 73.7361 5.69897 75.3823C2.84129 76.8436 1.41423 83.8634 5.77912 80.1248C8.54743 77.7536 11.5546 71.9656 5.61103 73.3254" stroke="white" stroke-width="2.02391" stroke-linecap="round"/>
<path d="M4.81762 97.0977C4.5825 96.402 3.10418 89.337 1.32497 90.853C0.0834146 91.9107 -0.674967 93.4805 -1.32649 94.9387C-1.93092 96.2915 -2.6034 101.59 0.103338 98.8427C0.800139 98.1355 4.47495 92.2633 2.89917 91.4725C1.15157 90.5956 -0.233764 96.4239 0.217755 97.6265" stroke="white" stroke-width="2.02391" stroke-linecap="round"/>
<path d="M16.6577 102.199C16.6754 102.167 20.6767 94.4497 18.5847 97.1426C17.592 98.4205 17.5352 100.065 17.3647 101.586" stroke="white" stroke-width="2.02391" stroke-linecap="round"/>
<path d="M44.1363 89.9217C46.9203 91.0882 50.953 93.6783 52.7181 89.9681C53.4005 88.5338 53.0999 88.1454 51.7261 87.9364" stroke="white" stroke-width="2.02391" stroke-linecap="round"/>
<path d="M17.0623 113.211C17.1826 114.653 16.8627 121.112 19.5082 118.101C20.8169 116.611 21.8009 114.95 22.4178 113.068C23.2689 110.473 21.8273 113.867 21.6992 114.987" stroke="white" stroke-width="2.02391" stroke-linecap="round"/>
<path d="M56.6112 86.7118C55.361 87.0347 48.5281 87.5439 49.5714 90.3496C50.2026 92.0474 52.7842 91.5065 53.9925 91.1083C60.7437 88.8834 55.2667 85.3221 50.306 88.8362C46.8695 91.2706 47.8643 93.9207 51.082 90.9424C53.5673 88.6419 52.9405 85.8982 50.8392 89.1441" stroke="white" stroke-width="2.02391" stroke-linecap="round"/>
<path d="M45.2633 104.804C43.5121 105.774 37.9701 107.668 37.8684 110.401C37.8111 111.938 40.5043 110.155 40.7859 109.895C41.4738 109.259 47.9252 99.9993 43.6726 100.956C42.6877 101.178 38.9332 104.375 39.8427 105.668C41.1195 107.484 44.0605 104.249 44.4798 103.029" stroke="white" stroke-width="2.02391" stroke-linecap="round"/>
<path d="M15.9184 117.347C25.0396 101.246 12.3898 115.354 14.2323 116.577C16.3129 117.957 20.791 109.65 16.9416 113.064" stroke="white" stroke-width="2.02391" stroke-linecap="round"/>
<path d="M1.0599 137.472C0.841534 137.594 -4.66378 140.985 -4.47195 141.041C-3.34697 141.375 -1.71895 139.125 -1.15711 138.443C-0.742782 137.94 2.84776 132.944 1.15775 133.959C-0.63887 135.037 -2.39572 138.393 -2.51658 140.47C-2.72588 144.074 1.79285 139.373 2.26438 138.55C4.2939 135.01 1.07219 135.473 -0.805795 137.404C-2.55637 139.204 -3.98425 143.025 -0.104332 140.477C0.624502 139.998 5.90781 134.022 2.98161 134.373C1.21056 134.585 -2.92587 139.58 0.998173 138.317" stroke="white" stroke-width="2.02391" stroke-linecap="round"/>
<path d="M16.468 135.18C16.5766 135.148 26.6118 132.616 23.5806 130.955C21.1284 129.612 16.5696 131.818 14.1669 132.511" stroke="white" stroke-width="2.02391" stroke-linecap="round"/>
<path d="M-6.80563 121.444C-6.78414 121.413 -1.68649 113.619 -1.70406 113.617C-2.43057 113.514 -3.86089 115.992 -4.15206 116.437C-4.37185 116.773 -7.11161 121.374 -5.44505 120.955C-3.3243 120.422 3.12716 113.248 -3.51341 117.319" stroke="white" stroke-width="2.02391" stroke-linecap="round"/>
<path d="M45.7337 120.353C45.8578 120.28 53.2284 115.561 49.5064 116.864C47.6239 117.524 46.1088 119.172 44.8373 120.636C43.2099 122.509 43.3987 123.359 45.1078 121.03" stroke="white" stroke-width="2.02391" stroke-linecap="round"/>
<path d="M55.0356 43.0264C54.4096 43.2823 43.5953 48.0032 47.5569 50.0431C49.2647 50.9226 51.0476 49.0595 52.2463 48.0461C56.9212 44.0935 50.4197 45.5452 48.8722 48.7275C48.4657 49.5632 49.3135 50.5603 50.1464 49.9332C51.3105 49.0568 53.3407 47.0118 53.5518 45.4733C53.6331 44.8801 52.5173 45.8125 52.5497 46.3965C52.6394 48.0125 55.0734 46.3421 55.5125 45.9409" stroke="white" stroke-width="2.02391" stroke-linecap="round"/>
<path d="M22.0562 55.057C21.7837 55.1629 14.8824 57.4324 15.5477 58.3713C16.0572 59.0903 18.1475 57.4455 18.4918 57.1974C19.1318 56.7361 22.2027 53.552 21.6965 54.1288" stroke="white" stroke-width="2.02391" stroke-linecap="round"/>
<path d="M58.0401 62.7173C57.4158 63.0923 51.088 65.8622 52.5792 67.3255C53.2835 68.0166 54.2951 67.471 55.0031 67.0652C55.6737 66.6808 58.5323 63.6654 57.0626 63.0322C54.2487 61.8199 52.6442 69.7874 56.2052 66.2025C59.574 62.811 55.2478 61.4716 54.9185 65.2024C54.7639 66.9534 56.507 64.0712 56.6411 63.5592C57.4304 60.5456 54.9419 61.9001 54.0941 63.5513" stroke="white" stroke-width="2.02391" stroke-linecap="round"/>
<path d="M69.5355 82.449C67.3205 83.1443 61.2343 85.9877 63.5556 86.0195C65.1258 86.0411 67.5678 82.8993 68.3182 81.7382C70.4249 78.4785 63.834 82.6039 65.3716 85.0484C67.4277 88.3171 72.9331 77.7418 67.4516 81.8521C66.6101 82.4831 62.6949 86.596 64.5753 87.3803C66.9663 88.3779 69.0837 84.0513 69.6892 82.5044" stroke="white" stroke-width="2.02391" stroke-linecap="round"/>
<path d="M10.012 74.5995C9.88776 74.671 2.41273 79.3794 3.57284 79.5993C4.55732 79.786 5.76437 77.6281 6.21047 77.0015C6.94205 75.9742 9.48452 70.6106 6.75244 73.8024C5.61946 75.126 5.08362 79.1189 6.68756 76.5506C7.19904 75.7315 8.3831 73.6341 7.453 72.7203C6.2923 71.58 4.94163 75.8283 4.6988 76.4334" stroke="white" stroke-width="2.02391" stroke-linecap="round"/>
</g>
<defs>
<clipPath id="clip0_223_6">
<rect width="81.7151" height="115.597" fill="white" transform="translate(6.20312 23.304) rotate(19.8241)"/>
</clipPath>
</defs>
</svg>
